<svg width="520" height="200" viewBox="0 0 520 200" fill="none" xmlns="http://www.w3.org/2000/svg">
<path d="M371.375 0H330.785V10.951L388.764 99.837L388.739 99.862L330.785 189.049V200H371.375L438.134 99.862L438.208 99.736L371.375 0Z" fill="#4a3f54"/>
<path d="M520.002 0H479.412L433.406 71.506L452.303 99.736L452.229 99.862L433.381 128.118L479.412 200H520.002V189.049L462.049 99.862L462.024 99.837L520.002 10.951V0ZM254.226 159.938C228.106 159.938 215.219 146.149 215.219 127.061V70.75C215.219 51.662 228.106 37.873 254.226 37.873C273.989 37.873 287.667 44.88 297.537 58.971L325.339 41.54C314.752 16.901 289.473 2.48401 254.226 2.48401C207.23 2.48401 176.93 27.601 176.93 70.022V127.764C176.93 170.185 207.23 195.301 254.226 195.301C289.473 195.301 314.752 180.91 325.339 156.271L297.537 138.84C287.667 152.93 273.964 159.938 254.226 159.938ZM79.424 2.715C42.247 2.715 18.155 17.935 8.78101 40.816L38.71 59.729C51.201 39.51 63.148 38.078 79.399 38.078C102.724 38.078 113.533 49.406 113.533 67.439V81.806L81.427 81.856C58.003 81.856 0 89.943 0 140.979C0 177.046 26.837 195.08 59.561 195.08C85.335 195.08 104.48 183.049 114.943 170.34L129.561 190.86H151.847V64.953C151.847 28.886 128.176 2.715 79.424 2.715ZM113.558 131.963C113.261 134.776 113.211 138.342 109.328 143.24C103.49 151.679 88.897 159.716 71.558 159.716C54.219 159.716 40.219 152.282 40.219 136.735C40.219 114.683 75.441 109.911 97.084 109.032H113.582V131.963H113.558Z" fill="#4a3f54"/>
</svg>
