<svg width="1018" height="232" viewBox="0 0 1018 232" fill="none" xmlns="http://www.w3.org/2000/svg">
<rect width="29.513" height="209.05" rx="14.7565" transform="matrix(-1 0 0 1 232.412 14.4583)" fill="#E6E3E7"/>
<rect width="29.513" height="174.618" rx="14.7565" transform="matrix(-1 0 0 1 191.833 31.6755)" fill="#E6E3E7"/>
<rect width="29.513" height="138.957" rx="14.7565" transform="matrix(-1 0 0 1 151.253 50.1196)" fill="#E6E3E7"/>
<rect width="29.513" height="102.066" rx="14.7565" transform="matrix(-1 0 0 1 110.672 68.5647)" fill="#E6E3E7"/>
<rect width="29.513" height="66.4042" rx="14.7565" transform="matrix(-1 0 0 1 70.0923 85.7822)" fill="#E6E3E7"/>
<rect width="29.513" height="31.9724" rx="14.7565" transform="matrix(-1 0 0 1 29.5129 102.999)" fill="#E6E3E7"/>
<path d="M328.091 44.6704C327.318 37.4014 324.766 31.7563 320.435 27.7352C316.182 23.714 310.692 21.7034 303.964 21.7034C299.865 21.7034 295.999 22.5927 292.364 24.3713C288.807 26.0726 285.675 28.5471 282.969 31.795C280.262 35.0429 278.136 38.948 276.589 43.5105C275.042 48.0729 274.269 53.2154 274.269 58.9378C274.269 66.2068 275.661 72.6252 278.445 78.193C281.229 83.7607 284.979 88.0912 289.697 91.1844C294.414 94.2776 299.633 95.8242 305.356 95.8242C310.382 95.8242 315.331 94.7029 320.203 92.4603C325.075 90.1404 329.057 86.8152 332.151 82.4848L335.167 84.9207C331.841 89.4831 328.245 93.0016 324.379 95.4762C320.512 97.9508 316.646 99.6134 312.779 100.464C308.99 101.392 305.51 101.856 302.34 101.856C296.54 101.856 291.204 100.812 286.333 98.7241C281.538 96.6361 277.362 93.7363 273.805 90.0244C270.325 86.2353 267.619 81.8661 265.686 76.917C263.83 71.8906 262.902 66.4775 262.902 60.6777C262.902 55.1873 263.714 49.8515 265.338 44.6704C267.039 39.4893 269.552 34.8109 272.877 30.635C276.202 26.4592 280.378 23.134 285.405 20.6595C290.508 18.1849 296.424 16.9477 303.152 16.9477C307.482 16.9477 311.581 17.5276 315.447 18.6876C319.314 19.8475 323.026 21.6261 326.583 24.0233L326.003 17.7596H332.267V44.6704H328.091ZM378.69 96.5202C381.087 96.5202 382.75 95.9402 383.678 94.7802C384.606 93.543 385.147 91.8804 385.302 89.7924C385.456 87.6272 385.534 85.1527 385.534 82.3688V66.1295C385.534 59.4791 384.451 54.4913 382.286 51.1661C380.198 47.841 376.873 46.217 372.31 46.2944C369.449 46.3717 366.626 47.0677 363.843 48.3823C361.136 49.6969 358.932 51.3981 357.231 53.486V87.7045C357.231 89.2511 357.192 90.6431 357.115 91.8804C357.038 93.0403 356.883 94.2776 356.651 95.5922C357.888 95.5149 359.087 95.4762 360.247 95.4762C361.484 95.3989 362.721 95.3215 363.959 95.2442V100H340.296V96.5202C342.693 96.5202 344.355 95.9402 345.283 94.7802C346.211 93.543 346.753 91.8804 346.907 89.7924C347.139 87.6272 347.255 85.1527 347.255 82.3688V27.5032C347.255 26.2659 347.255 25.106 347.255 24.0233C347.333 22.8634 347.449 21.5101 347.603 19.9635C346.211 20.0408 344.819 20.1182 343.428 20.1955C342.113 20.2728 340.76 20.3502 339.368 20.4275V15.5557C342.77 15.5557 345.399 15.4011 347.255 15.0917C349.189 14.7824 350.619 14.3958 351.547 13.9318C352.552 13.4678 353.326 12.9652 353.867 12.4238H357.231V47.8023C358.932 46.333 360.827 45.0571 362.915 43.9745C365.08 42.8145 367.284 41.8866 369.526 41.1906C371.846 40.4946 374.089 40.1466 376.254 40.1466C382.982 40.1466 387.815 42.2732 390.753 46.5264C393.769 50.7022 395.316 57.2365 395.393 66.1295L395.509 87.7045C395.509 89.2511 395.471 90.6431 395.393 91.8804C395.393 93.0403 395.277 94.2776 395.045 95.5922C396.283 95.5149 397.481 95.4762 398.641 95.4762C399.878 95.3989 401.116 95.3215 402.353 95.2442V100H378.69V96.5202ZM408.574 96.5202C410.971 96.5202 412.634 95.9402 413.562 94.7802C414.49 93.543 415.031 91.8804 415.186 89.7924C415.34 87.6272 415.418 85.1527 415.418 82.3688V55.9219C415.418 54.6847 415.418 53.4474 415.418 52.2101C415.495 50.9728 415.65 49.6969 415.882 48.3823C414.49 48.4596 413.098 48.5369 411.706 48.6143C410.391 48.6143 409.038 48.6529 407.646 48.7303V43.9745H411.242C414.567 43.9745 416.848 43.6651 418.086 43.0465C419.4 42.3505 420.483 41.6159 421.333 40.8426H424.697C424.852 42.0799 424.968 43.6265 425.045 45.4824C425.123 47.261 425.2 49.5422 425.277 52.3261C426.437 50.3928 428.023 48.4983 430.033 46.6423C432.044 44.7864 434.286 43.2398 436.761 42.0026C439.313 40.7653 441.981 40.1466 444.764 40.1466C446.93 40.1466 448.824 40.7266 450.448 41.8866C452.072 43.0465 452.884 44.9024 452.884 47.4543C452.884 48.0729 452.691 48.8462 452.304 49.7742C451.917 50.6248 451.299 51.3981 450.448 52.0941C449.598 52.7127 448.476 53.0221 447.084 53.0221C445.383 52.9447 444.03 52.2874 443.025 51.0502C442.019 49.7355 441.633 48.2276 441.865 46.5264C439.931 46.449 437.921 46.9517 435.833 48.0343C433.822 49.1169 431.928 50.6248 430.149 52.5581C428.371 54.414 426.785 56.6179 425.393 59.1698L425.509 87.7045C425.509 89.2511 425.471 90.6431 425.393 91.8804C425.393 93.0403 425.277 94.2776 425.045 95.5922C426.283 95.5149 427.481 95.4762 428.641 95.4762C429.878 95.3989 431.116 95.3215 432.353 95.2442V100H408.574V96.5202ZM456.436 96.5202C458.833 96.5202 460.495 95.9402 461.423 94.7802C462.351 93.543 462.893 91.8804 463.047 89.7924C463.202 87.6272 463.279 85.1527 463.279 82.3688V55.9219C463.279 54.6847 463.318 53.5247 463.395 52.4421C463.473 51.2821 463.589 49.9289 463.743 48.3823C462.351 48.4596 460.959 48.5369 459.567 48.6143C458.253 48.6916 456.9 48.7689 455.508 48.8462V43.9745C458.91 43.9745 461.539 43.8198 463.395 43.5105C465.251 43.2012 466.643 42.8145 467.571 42.3505C468.576 41.8866 469.35 41.3839 469.891 40.8426H473.255V87.7045C473.255 89.2511 473.216 90.6431 473.139 91.8804C473.139 93.0403 473.023 94.2776 472.791 95.5922C474.028 95.5149 475.227 95.4762 476.387 95.4762C477.624 95.3989 478.861 95.3215 480.099 95.2442V100H456.436V96.5202ZM467.571 29.3591C465.947 29.3591 464.517 28.7018 463.279 27.3872C462.042 26.0726 461.423 24.4487 461.423 22.5154C461.423 20.5822 462.042 18.9582 463.279 17.6436C464.594 16.2517 466.063 15.5557 467.687 15.5557C469.466 15.5557 470.935 16.2517 472.095 17.6436C473.332 18.9582 473.951 20.5822 473.951 22.5154C473.951 24.4487 473.293 26.0726 471.979 27.3872C470.742 28.7018 469.272 29.3591 467.571 29.3591ZM510.518 101.856C506.652 101.856 503.21 101.315 500.195 100.232C497.179 99.2267 494.704 98.0668 492.771 96.7521L493.235 100.812H488.363L487.667 80.8608H491.263C491.418 84.0314 492.307 86.8926 493.931 89.4445C495.555 91.919 497.643 93.8523 500.195 95.2442C502.747 96.6361 505.492 97.3321 508.43 97.3321C510.441 97.3321 512.413 97.0228 514.346 96.4042C516.279 95.7082 517.903 94.7029 519.218 93.3883C520.532 91.9964 521.19 90.2564 521.19 88.1685C521.19 86.0033 520.532 84.2247 519.218 82.8328C517.981 81.3635 516.318 80.0875 514.23 79.0049C512.142 77.9223 509.9 76.917 507.502 75.9891C505.182 75.0611 502.863 74.0945 500.543 73.0892C498.223 72.0839 496.057 70.8853 494.047 69.4933C492.114 68.1014 490.567 66.4001 489.407 64.3896C488.247 62.379 487.667 59.9044 487.667 56.9659C487.667 55.342 487.976 53.5634 488.595 51.6301C489.214 49.6969 490.258 47.8796 491.727 46.1784C493.196 44.3998 495.207 42.9692 497.759 41.8866C500.311 40.7266 503.558 40.1466 507.502 40.1466C509.59 40.1466 511.91 40.4946 514.462 41.1906C517.014 41.8866 519.488 43.2012 521.886 45.1344L521.654 40.7266H526.525V61.0257H522.814C522.659 58.3192 522.04 55.7286 520.958 53.2541C519.875 50.7022 518.29 48.6143 516.202 46.9903C514.114 45.2891 511.407 44.4384 508.082 44.4384C504.525 44.4384 501.741 45.3277 499.731 47.1063C497.72 48.8849 496.715 50.9342 496.715 53.2541C496.715 55.6513 497.449 57.6619 498.919 59.2858C500.465 60.8324 502.437 62.1857 504.834 63.3456C507.232 64.5056 509.784 65.6268 512.49 66.7095C515.429 67.9467 518.29 69.3 521.074 70.7693C523.858 72.2386 526.139 74.0945 527.917 76.337C529.696 78.5023 530.585 81.3248 530.585 84.8047C530.585 88.6712 529.58 91.8804 527.569 94.4322C525.636 96.9841 523.123 98.8401 520.03 100C517.014 101.237 513.843 101.856 510.518 101.856ZM559.919 101.856C558.141 101.856 556.323 101.585 554.468 101.044C552.612 100.58 550.872 99.6134 549.248 98.1441C547.701 96.6748 546.464 94.5482 545.536 91.7644C544.608 88.9032 544.144 85.1527 544.144 80.5129L544.376 46.8743L535.444 46.9903V42.0026C537.455 41.9252 539.504 41.1906 541.592 39.7986C543.68 38.3294 545.536 36.3575 547.16 33.8829C548.861 31.4083 550.021 28.7018 550.64 25.7633H554.584V42.0026H574.071V46.5264L554.584 46.7583L554.352 79.0049C554.352 82.4848 554.622 85.462 555.164 87.9365C555.782 90.3338 556.749 92.151 558.063 93.3883C559.378 94.6256 561.079 95.2442 563.167 95.2442C565.332 95.2442 567.343 94.6256 569.199 93.3883C571.132 92.151 572.833 90.4498 574.303 88.2845L577.435 90.8364C575.733 93.3883 574.032 95.3989 572.331 96.8681C570.707 98.3374 569.122 99.42 567.575 100.116C566.028 100.889 564.598 101.353 563.283 101.508C561.969 101.74 560.847 101.856 559.919 101.856ZM580.65 96.5202C583.047 96.5202 584.71 95.9402 585.638 94.7802C586.566 93.543 587.107 91.8804 587.261 89.7924C587.416 87.6272 587.493 85.1527 587.493 82.3688V55.9219C587.493 54.6847 587.532 53.5247 587.609 52.4421C587.687 51.2821 587.803 49.9289 587.957 48.3823C586.566 48.4596 585.174 48.5369 583.782 48.6143C582.467 48.6916 581.114 48.7689 579.722 48.8462V43.9745C583.124 43.9745 585.754 43.8198 587.609 43.5105C589.465 43.2012 590.857 42.8145 591.785 42.3505C592.791 41.8866 593.564 41.3839 594.105 40.8426H597.469V87.7045C597.469 89.2511 597.43 90.6431 597.353 91.8804C597.353 93.0403 597.237 94.2776 597.005 95.5922C598.242 95.5149 599.441 95.4762 600.601 95.4762C601.838 95.3989 603.075 95.3215 604.313 95.2442V100H580.65V96.5202ZM591.785 29.3591C590.161 29.3591 588.731 28.7018 587.493 27.3872C586.256 26.0726 585.638 24.4487 585.638 22.5154C585.638 20.5822 586.256 18.9582 587.493 17.6436C588.808 16.2517 590.277 15.5557 591.901 15.5557C593.68 15.5557 595.149 16.2517 596.309 17.6436C597.546 18.9582 598.165 20.5822 598.165 22.5154C598.165 24.4487 597.508 26.0726 596.193 27.3872C594.956 28.7018 593.487 29.3591 591.785 29.3591ZM646.216 100C645.984 98.6854 645.829 97.5254 645.752 96.5202C645.675 95.5149 645.559 94.4709 645.404 93.3883C642.775 96.0175 639.914 98.1054 636.82 99.652C633.804 101.121 630.595 101.856 627.193 101.856C621.316 101.856 616.947 100.541 614.085 97.9121C611.224 95.2055 609.793 91.919 609.793 88.0525C609.793 84.4953 610.876 81.4408 613.041 78.8889C615.284 76.2597 618.145 74.1331 621.625 72.5092C625.182 70.808 629.01 69.5707 633.108 68.7974C637.284 67.9467 641.305 67.5601 645.172 67.6374V60.4457C645.172 57.7392 644.94 55.1873 644.476 52.7901C644.012 50.3928 643.007 48.4209 641.46 46.8743C639.914 45.3277 637.439 44.5158 634.036 44.4384C631.794 44.3611 629.474 44.7864 627.077 45.7144C624.757 46.6423 623.056 48.2276 621.973 50.4702C622.592 51.0888 622.978 51.8235 623.133 52.6741C623.365 53.4474 623.481 54.182 623.481 54.878C623.481 55.8059 623.094 56.8886 622.321 58.1258C621.548 59.2858 620.194 59.8271 618.261 59.7498C616.637 59.7498 615.4 59.2085 614.549 58.1258C613.699 56.9659 613.273 55.6126 613.273 54.066C613.273 51.4368 614.24 49.0782 616.173 46.9903C618.184 44.9024 620.929 43.2398 624.409 42.0026C627.889 40.7653 631.833 40.1466 636.24 40.1466C642.736 40.1466 647.531 41.8866 650.624 45.3664C653.717 48.7689 655.225 54.182 655.148 61.6057C655.148 64.4669 655.148 67.3668 655.148 70.3053C655.148 73.1665 655.109 76.0664 655.032 79.0049C655.032 81.8661 655.032 84.766 655.032 87.7045C655.032 88.9418 654.993 90.1791 654.916 91.4164C654.838 92.6537 654.722 94.0456 654.568 95.5922C655.959 95.5149 657.313 95.4375 658.627 95.3602C660.019 95.2829 661.411 95.2055 662.803 95.1282V100H646.216ZM645.172 71.5812C642.543 71.6586 639.759 72.0066 636.82 72.6252C633.959 73.1665 631.291 74.0171 628.817 75.1771C626.419 76.337 624.448 77.8836 622.901 79.8169C621.432 81.6728 620.736 83.954 620.813 86.6606C620.968 89.5218 621.896 91.687 623.597 93.1563C625.375 94.5482 627.463 95.2442 629.861 95.2442C633.031 95.2442 635.776 94.6642 638.096 93.5043C640.493 92.267 642.852 90.5657 645.172 88.4005C645.095 87.5499 645.056 86.6219 645.056 85.6166C645.056 84.6113 645.056 83.5674 645.056 82.4848C645.056 82.0981 645.056 80.8608 645.056 78.7729C645.133 76.685 645.172 74.2878 645.172 71.5812ZM668.443 100V96.5202C670.841 96.5202 672.503 95.9402 673.431 94.7802C674.359 93.543 674.9 91.8804 675.055 89.7924C675.21 87.6272 675.287 85.1527 675.287 82.3688L675.403 55.9219C675.403 54.6847 675.403 53.4474 675.403 52.2101C675.48 50.9728 675.635 49.6969 675.867 48.3823C674.475 48.4596 673.083 48.5369 671.691 48.6143C670.377 48.6916 669.023 48.7689 667.631 48.8462V43.9745C671.034 43.9745 673.586 43.8198 675.287 43.5105C677.066 43.2012 678.38 42.8145 679.231 42.3505C680.082 41.8866 680.778 41.3839 681.319 40.8426H684.683C684.76 41.3839 684.799 42.0025 684.799 42.6985C684.876 43.3945 684.953 44.1678 685.031 45.0184C685.108 45.869 685.147 46.8357 685.147 47.9183C686.848 46.449 688.704 45.1344 690.714 43.9745C692.802 42.8145 694.968 41.8866 697.21 41.1906C699.53 40.4946 701.811 40.1466 704.054 40.1466C710.782 40.1466 715.692 42.2732 718.785 46.5264C721.878 50.7022 723.425 57.2365 723.425 66.1295V87.7045C723.425 89.2511 723.386 90.6431 723.309 91.8804C723.309 93.0403 723.193 94.2776 722.961 95.5922C724.198 95.5149 725.397 95.4762 726.557 95.4762C727.794 95.3989 729.031 95.3215 730.269 95.2442V100H706.606V96.5202C709.003 96.5202 710.666 95.9402 711.594 94.7802C712.521 93.543 713.063 91.8804 713.217 89.7924C713.372 87.6272 713.449 85.1527 713.449 82.3688V66.1295C713.372 59.4791 712.251 54.4527 710.086 51.0502C707.998 47.6476 704.672 45.985 700.11 46.0624C697.326 46.1397 694.581 46.8743 691.874 48.2663C689.245 49.6582 687.041 51.4368 685.263 53.602C685.34 54.2207 685.379 54.9166 685.379 55.6899C685.379 56.4632 685.379 57.2752 685.379 58.1258L685.263 87.7045C685.263 89.2511 685.224 90.6431 685.147 91.8804C685.147 93.0403 685.031 94.2776 684.799 95.5922C686.036 95.5149 687.235 95.4762 688.395 95.4762C689.632 95.3989 690.869 95.3215 692.106 95.2442V100H668.443ZM817.51 43.2785C817.433 38.716 816.969 34.9269 816.119 31.911C815.268 28.8951 813.76 26.6526 811.595 25.1833C809.507 23.6367 806.452 22.9021 802.431 22.9794H792.572L792.456 86.1966C792.456 88.2845 792.417 90.1018 792.34 91.6484C792.34 93.1176 792.262 94.3549 792.108 95.3602C793.731 95.2829 795.317 95.2055 796.863 95.1282C798.487 95.0509 800.111 94.9736 801.735 94.8962V100H774.476V96.1722C777.415 96.0175 779.387 95.3215 780.392 94.0843C781.475 92.847 782.055 91.1844 782.132 89.0965C782.287 86.9312 782.364 84.534 782.364 81.9048L782.48 23.0954L770.533 23.2114C765.661 23.2114 762.22 24.8353 760.209 28.0832C758.198 31.331 757.193 36.3961 757.193 43.2785H752.901L753.597 18.8036H821.222L821.918 43.2785H817.51ZM827.329 96.5202C829.726 96.5202 831.389 95.9402 832.317 94.7802C833.245 93.543 833.786 91.8804 833.941 89.7924C834.096 87.6272 834.173 85.1527 834.173 82.3688V55.9219C834.173 54.6847 834.212 53.5247 834.289 52.4421C834.366 51.2821 834.482 49.9289 834.637 48.3823C833.245 48.4596 831.853 48.5369 830.461 48.6143C829.146 48.6916 827.793 48.7689 826.401 48.8462V43.9745C829.804 43.9745 832.433 43.8198 834.289 43.5105C836.145 43.2012 837.537 42.8145 838.465 42.3505C839.47 41.8866 840.243 41.3839 840.785 40.8426H844.149V87.7045C844.149 89.2511 844.11 90.6431 844.033 91.8804C844.033 93.0403 843.917 94.2776 843.685 95.5922C844.922 95.5149 846.12 95.4762 847.28 95.4762C848.518 95.3989 849.755 95.3215 850.992 95.2442V100H827.329V96.5202ZM838.465 29.3591C836.841 29.3591 835.41 28.7018 834.173 27.3872C832.936 26.0726 832.317 24.4487 832.317 22.5154C832.317 20.5822 832.936 18.9582 834.173 17.6436C835.488 16.2517 836.957 15.5557 838.581 15.5557C840.359 15.5557 841.829 16.2517 842.989 17.6436C844.226 18.9582 844.844 20.5822 844.844 22.5154C844.844 24.4487 844.187 26.0726 842.873 27.3872C841.635 28.7018 840.166 29.3591 838.465 29.3591ZM881.252 101.856C879.474 101.856 877.657 101.585 875.801 101.044C873.945 100.58 872.205 99.6134 870.581 98.1441C869.034 96.6748 867.797 94.5482 866.869 91.7644C865.941 88.9032 865.477 85.1527 865.477 80.5129L865.709 46.8743L856.777 46.9903V42.0026C858.788 41.9252 860.837 41.1906 862.925 39.7986C865.013 38.3294 866.869 36.3575 868.493 33.8829C870.194 31.4083 871.354 28.7018 871.973 25.7633H875.917V42.0026H895.404V46.5264L875.917 46.7583L875.685 79.0049C875.685 82.4848 875.955 85.462 876.497 87.9365C877.115 90.3338 878.082 92.151 879.396 93.3883C880.711 94.6256 882.412 95.2442 884.5 95.2442C886.665 95.2442 888.676 94.6256 890.532 93.3883C892.465 92.151 894.166 90.4498 895.636 88.2845L898.768 90.8364C897.066 93.3883 895.365 95.3989 893.664 96.8681C892.04 98.3374 890.455 99.42 888.908 100.116C887.361 100.889 885.931 101.353 884.616 101.508C883.302 101.74 882.18 101.856 881.252 101.856ZM926.458 101.856C922.282 101.856 918.763 101.083 915.902 99.536C913.118 97.9894 910.992 95.3602 909.522 91.6484C908.131 87.9365 907.435 82.9101 907.435 76.569V55.9219C907.435 54.6847 907.435 53.4474 907.435 52.2101C907.512 50.9728 907.667 49.6969 907.899 48.3823C906.584 48.4596 905.231 48.5369 903.839 48.6143C902.524 48.6143 901.21 48.6529 899.895 48.7303V43.9745H903.491C906.816 43.9745 909.213 43.6651 910.682 43.0465C912.229 42.3505 913.428 41.6159 914.278 40.8426H917.642V76.221C917.642 82.8714 918.57 87.8592 920.426 91.1844C922.359 94.4322 925.607 96.0175 930.17 95.9402C933.108 95.8628 935.892 94.9736 938.521 93.2723C941.228 91.4937 943.393 89.4058 945.017 87.0086V57.1979C945.017 55.342 945.056 53.7567 945.133 52.4421C945.21 51.0502 945.365 49.6969 945.597 48.3823C944.205 48.4596 942.813 48.5369 941.421 48.6143C940.029 48.6143 938.637 48.6529 937.245 48.7303V43.9745H940.841C944.166 43.9745 946.564 43.6651 948.033 43.0465C949.579 42.3505 950.778 41.6159 951.629 40.8426H954.992L954.876 84.6887C954.876 85.926 954.838 87.6659 954.76 89.9084C954.683 92.151 954.567 94.0456 954.412 95.5922C955.804 95.5149 957.196 95.4375 958.588 95.3602C959.98 95.2829 961.372 95.2055 962.764 95.1282V100H946.177C945.945 98.6854 945.752 97.4481 945.597 96.2882C945.52 95.1282 945.442 94.0456 945.365 93.0403C942.968 95.4375 940.068 97.5254 936.665 99.304C933.263 101.005 929.86 101.856 926.458 101.856ZM992.654 101.856C988.787 101.856 985.346 101.315 982.33 100.232C979.314 99.2267 976.84 98.0668 974.906 96.7521L975.37 100.812H970.499L969.803 80.8608H973.399C973.553 84.0314 974.442 86.8926 976.066 89.4445C977.69 91.919 979.778 93.8523 982.33 95.2442C984.882 96.6361 987.627 97.3321 990.566 97.3321C992.576 97.3321 994.548 97.0228 996.481 96.4042C998.415 95.7082 1000.04 94.7029 1001.35 93.3883C1002.67 91.9964 1003.33 90.2564 1003.33 88.1685C1003.33 86.0033 1002.67 84.2247 1001.35 82.8328C1000.12 81.3635 998.453 80.0875 996.366 79.0049C994.278 77.9223 992.035 76.917 989.638 75.9891C987.318 75.0611 984.998 74.0945 982.678 73.0892C980.358 72.0839 978.193 70.8853 976.182 69.4933C974.249 68.1014 972.703 66.4001 971.543 64.3896C970.383 62.379 969.803 59.9044 969.803 56.9659C969.803 55.342 970.112 53.5634 970.731 51.6301C971.349 49.6969 972.393 47.8796 973.862 46.1784C975.332 44.3998 977.342 42.9692 979.894 41.8866C982.446 40.7266 985.694 40.1466 989.638 40.1466C991.726 40.1466 994.046 40.4946 996.597 41.1906C999.149 41.8866 1001.62 43.2012 1004.02 45.1344L1003.79 40.7266H1008.66V61.0257H1004.95C1004.79 58.3192 1004.18 55.7286 1003.09 53.2541C1002.01 50.7022 1000.43 48.6143 998.337 46.9903C996.25 45.2891 993.543 44.4384 990.218 44.4384C986.661 44.4384 983.877 45.3277 981.866 47.1063C979.856 48.8849 978.85 50.9342 978.85 53.2541C978.85 55.6513 979.585 57.6619 981.054 59.2858C982.601 60.8324 984.573 62.1857 986.97 63.3456C989.367 64.5056 991.919 65.6268 994.626 66.7095C997.564 67.9467 1000.43 69.3 1003.21 70.7693C1005.99 72.2386 1008.27 74.0945 1010.05 76.337C1011.83 78.5023 1012.72 81.3248 1012.72 84.8047C1012.72 88.6712 1011.72 91.8804 1009.7 94.4322C1007.77 96.9841 1005.26 98.8401 1002.17 100C999.149 101.237 995.979 101.856 992.654 101.856ZM294.916 217.16L268.585 155.451C266.884 151.507 265.686 148.336 264.99 145.939C264.294 143.465 263.83 141.377 263.598 139.675C262.515 139.753 261.432 139.791 260.35 139.791C259.267 139.791 258.185 139.83 257.102 139.907V134.804H284.013L283.897 138.747C280.03 138.979 277.71 140.178 276.937 142.343C276.164 144.431 276.55 147.408 278.097 151.275C279.953 155.837 281.732 160.245 283.433 164.498C285.134 168.751 287.029 173.353 289.117 178.302C290.972 182.632 292.751 186.808 294.452 190.829C296.231 194.773 297.584 198.059 298.512 200.689H298.744C299.595 197.982 300.445 195.392 301.296 192.917C302.224 190.442 303.307 187.504 304.544 184.101C306.864 177.606 308.797 172.115 310.344 167.63C311.968 163.145 313.359 159.317 314.519 156.147C315.679 152.976 316.646 150.27 317.419 148.027C318.115 146.016 318.734 144.315 319.275 142.923C319.817 141.531 320.319 140.371 320.783 139.443C319.314 139.521 317.845 139.598 316.375 139.675C314.906 139.753 313.398 139.83 311.852 139.907V134.804H335.398V138.631C331.996 138.786 329.367 139.675 327.511 141.299C325.732 142.923 324.108 145.823 322.639 149.999C322.484 150.386 322.291 150.927 322.059 151.623C321.827 152.241 321.44 153.285 320.899 154.755C320.358 156.224 319.585 158.389 318.579 161.25C317.574 164.034 316.182 167.823 314.403 172.618C312.702 177.412 310.498 183.444 307.792 190.713C305.162 197.982 301.953 206.798 298.164 217.16H294.916ZM360.367 217.856C354.954 217.856 350.044 216.619 345.636 214.144C341.228 211.592 337.71 208.112 335.08 203.705C332.529 199.219 331.253 194.116 331.253 188.393C331.253 182.284 332.529 176.794 335.08 171.922C337.632 167.05 341.112 163.222 345.52 160.438C349.928 157.577 354.877 156.147 360.367 156.147C365.78 156.147 370.691 157.461 375.099 160.09C379.506 162.642 383.025 166.122 385.654 170.53C388.283 174.938 389.598 179.964 389.598 185.609C389.598 191.564 388.283 197.016 385.654 201.965C383.102 206.836 379.622 210.703 375.215 213.564C370.807 216.425 365.858 217.856 360.367 217.856ZM361.295 213.216C365.394 213.216 368.642 212.056 371.039 209.736C373.436 207.416 375.137 204.401 376.143 200.689C377.225 196.977 377.767 193.072 377.767 188.973C377.767 185.493 377.419 182.091 376.723 178.766C376.104 175.363 375.099 172.309 373.707 169.602C372.315 166.818 370.498 164.614 368.255 162.99C366.09 161.366 363.46 160.554 360.367 160.554C356.346 160.554 353.06 161.714 350.508 164.034C347.956 166.354 346.061 169.37 344.824 173.082C343.664 176.794 343.084 180.776 343.084 185.029C343.084 189.824 343.741 194.386 345.056 198.717C346.371 202.97 348.381 206.45 351.088 209.156C353.794 211.863 357.197 213.216 361.295 213.216ZM397.133 212.52C399.53 212.52 401.193 211.94 402.121 210.78C403.049 209.543 403.59 207.88 403.745 205.792C403.9 203.627 403.977 201.153 403.977 198.369V171.922C403.977 170.685 404.016 169.525 404.093 168.442C404.17 167.282 404.286 165.929 404.441 164.382C403.049 164.46 401.657 164.537 400.265 164.614C398.95 164.692 397.597 164.769 396.205 164.846V159.974C399.608 159.974 402.237 159.82 404.093 159.51C405.949 159.201 407.341 158.815 408.269 158.351C409.274 157.887 410.047 157.384 410.589 156.843H413.952V203.705C413.952 205.251 413.914 206.643 413.836 207.88C413.836 209.04 413.72 210.278 413.488 211.592C414.726 211.515 415.924 211.476 417.084 211.476C418.322 211.399 419.559 211.322 420.796 211.244V216H397.133V212.52ZM408.269 145.359C406.645 145.359 405.214 144.702 403.977 143.387C402.74 142.073 402.121 140.449 402.121 138.515C402.121 136.582 402.74 134.958 403.977 133.644C405.291 132.252 406.761 131.556 408.385 131.556C410.163 131.556 411.633 132.252 412.792 133.644C414.03 134.958 414.648 136.582 414.648 138.515C414.648 140.449 413.991 142.073 412.676 143.387C411.439 144.702 409.97 145.359 408.269 145.359ZM455.74 217.856C450.558 217.856 445.764 216.696 441.356 214.376C437.026 211.979 433.546 208.576 430.917 204.169C428.365 199.683 427.089 194.309 427.089 188.045C427.089 184.024 427.823 180.119 429.293 176.33C430.762 172.541 432.811 169.138 435.44 166.122C438.147 163.029 441.356 160.593 445.068 158.815C448.78 157.036 452.878 156.147 457.364 156.147C461.694 156.147 465.444 156.804 468.615 158.119C471.863 159.433 474.376 161.173 476.155 163.338C477.933 165.504 478.823 167.862 478.823 170.414C478.823 172.115 478.359 173.585 477.431 174.822C476.503 175.982 475.149 176.562 473.371 176.562C471.438 176.639 470.046 176.059 469.195 174.822C468.422 173.507 468.035 172.347 468.035 171.342C468.035 170.569 468.151 169.795 468.383 169.022C468.615 168.171 469.079 167.398 469.775 166.702C469.156 164.846 468.074 163.493 466.527 162.642C464.981 161.714 463.357 161.134 461.655 160.902C460.031 160.593 458.678 160.438 457.596 160.438C452.337 160.438 447.891 162.565 444.256 166.818C440.699 170.994 438.92 177.103 438.92 185.145C438.92 190.326 439.732 194.928 441.356 198.949C443.057 202.97 445.416 206.14 448.432 208.46C451.448 210.703 454.928 211.824 458.871 211.824C462.506 211.824 465.986 210.858 469.311 208.924C472.636 206.991 475.227 204.632 477.083 201.849L480.099 204.169C478.088 207.416 475.652 210.046 472.791 212.056C470.007 214.067 467.107 215.536 464.091 216.464C461.153 217.392 458.369 217.856 455.74 217.856ZM514.357 217.856C509.021 217.856 504.188 216.619 499.858 214.144C495.604 211.592 492.241 208.035 489.766 203.473C487.291 198.833 486.054 193.381 486.054 187.117C486.054 181.704 487.253 176.639 489.65 171.922C492.125 167.205 495.566 163.416 499.974 160.554C504.381 157.616 509.485 156.147 515.285 156.147C518.533 156.147 521.549 156.688 524.332 157.771C527.194 158.776 529.707 160.361 531.872 162.526C534.037 164.614 535.739 167.282 536.976 170.53C538.213 173.701 538.832 177.451 538.832 181.782L498.002 182.477C498.002 188.355 498.62 193.536 499.858 198.021C501.172 202.429 503.26 205.87 506.121 208.344C508.982 210.742 512.656 211.94 517.141 211.94C519.538 211.94 521.974 211.515 524.448 210.664C527 209.814 529.359 208.654 531.524 207.184C533.689 205.715 535.429 204.091 536.744 202.313L539.528 204.632C537.44 207.88 534.927 210.471 531.988 212.404C529.05 214.337 526.034 215.729 522.94 216.58C519.847 217.431 516.986 217.856 514.357 217.856ZM498.35 177.606H527.928C527.928 174.822 527.503 172.154 526.652 169.602C525.879 166.973 524.564 164.846 522.709 163.222C520.853 161.521 518.417 160.67 515.401 160.67C510.916 160.67 507.165 162.024 504.149 164.73C501.211 167.359 499.278 171.651 498.35 177.606ZM607.233 217.856C599.886 217.856 593.584 216.619 588.325 214.144C583.067 211.67 578.775 208.383 575.45 204.285C572.202 200.109 569.805 195.508 568.258 190.481C566.712 185.455 565.938 180.428 565.938 175.402C565.938 170.53 566.75 165.62 568.374 160.67C569.998 155.644 572.473 151.043 575.798 146.867C579.2 142.691 583.415 139.327 588.441 136.775C593.545 134.224 599.5 132.948 606.305 132.948C613.419 132.948 619.567 134.224 624.748 136.775C629.929 139.327 634.182 142.73 637.507 146.983C640.91 151.159 643.423 155.721 645.047 160.67C646.748 165.62 647.599 170.53 647.599 175.402C647.599 180.196 646.787 185.107 645.163 190.133C643.539 195.082 641.026 199.683 637.623 203.937C634.298 208.112 630.122 211.476 625.096 214.028C620.069 216.58 614.115 217.856 607.233 217.856ZM607.465 213.1C612.259 213.1 616.435 212.095 619.992 210.084C623.549 207.996 626.488 205.251 628.808 201.849C631.205 198.369 632.983 194.541 634.143 190.365C635.381 186.112 635.999 181.859 635.999 177.606C635.999 172.811 635.342 168.055 634.027 163.338C632.713 158.621 630.78 154.329 628.228 150.463C625.676 146.596 622.505 143.503 618.716 141.183C615.004 138.786 610.751 137.587 605.957 137.587C601.162 137.587 596.948 138.631 593.313 140.719C589.756 142.807 586.779 145.591 584.382 149.071C582.062 152.473 580.283 156.301 579.046 160.554C577.886 164.73 577.306 168.983 577.306 173.314C577.306 177.567 577.886 182.013 579.046 186.653C580.283 191.293 582.139 195.624 584.614 199.645C587.088 203.666 590.22 206.914 594.009 209.388C597.798 211.863 602.283 213.1 607.465 213.1ZM677.519 216.348L660.932 178.534C659.695 175.595 658.728 173.082 658.032 170.994C657.336 168.906 656.833 167.166 656.524 165.774C656.292 164.382 656.137 163.261 656.06 162.41L651.072 162.758V158.003H672.415V161.482C670.095 161.482 668.587 162.101 667.892 163.338C667.273 164.498 667.196 166.084 667.66 168.094C668.124 170.027 668.819 172.115 669.747 174.358L678.679 194.773C679.298 196.088 679.878 197.479 680.419 198.949C681.038 200.341 681.618 201.81 682.159 203.357H682.275C682.662 202.197 683.087 200.959 683.551 199.645C684.092 198.33 684.556 197.054 684.943 195.817L694.222 170.414C694.841 168.558 695.498 166.934 696.194 165.542C696.89 164.15 697.393 163.106 697.702 162.41L690.279 162.758V158.003H708.606V161.482C706.904 161.482 705.474 162.062 704.314 163.222C703.154 164.382 702.033 166.122 700.95 168.442C699.945 170.762 698.746 173.662 697.354 177.142L682.159 216.348H677.519ZM739.228 217.856C733.893 217.856 729.059 216.619 724.729 214.144C720.476 211.592 717.112 208.035 714.637 203.473C712.163 198.833 710.926 193.381 710.926 187.117C710.926 181.704 712.124 176.639 714.521 171.922C716.996 167.205 720.437 163.416 724.845 160.554C729.253 157.616 734.357 156.147 740.156 156.147C743.404 156.147 746.42 156.688 749.204 157.771C752.065 158.776 754.578 160.361 756.744 162.526C758.909 164.614 760.61 167.282 761.847 170.53C763.085 173.701 763.703 177.451 763.703 181.782L722.873 182.477C722.873 188.355 723.492 193.536 724.729 198.021C726.044 202.429 728.132 205.87 730.993 208.344C733.854 210.742 737.527 211.94 742.012 211.94C744.409 211.94 746.845 211.515 749.32 210.664C751.872 209.814 754.23 208.654 756.396 207.184C758.561 205.715 760.301 204.091 761.615 202.313L764.399 204.632C762.311 207.88 759.798 210.471 756.86 212.404C753.921 214.337 750.905 215.729 747.812 216.58C744.719 217.431 741.858 217.856 739.228 217.856ZM723.221 177.606H752.8C752.8 174.822 752.374 172.154 751.524 169.602C750.751 166.973 749.436 164.846 747.58 163.222C745.724 161.521 743.288 160.67 740.272 160.67C735.787 160.67 732.037 162.024 729.021 164.73C726.082 167.359 724.149 171.651 723.221 177.606ZM771.706 212.52C774.103 212.52 775.766 211.94 776.694 210.78C777.622 209.543 778.163 207.88 778.318 205.792C778.472 203.627 778.55 201.153 778.55 198.369V171.922C778.55 170.685 778.55 169.447 778.55 168.21C778.627 166.973 778.782 165.697 779.014 164.382C777.622 164.46 776.23 164.537 774.838 164.614C773.523 164.614 772.17 164.653 770.778 164.73V159.974H774.374C777.699 159.974 779.98 159.665 781.218 159.047C782.532 158.351 783.615 157.616 784.465 156.843H787.829C787.984 158.08 788.1 159.626 788.177 161.482C788.255 163.261 788.332 165.542 788.409 168.326C789.569 166.393 791.155 164.498 793.165 162.642C795.176 160.786 797.418 159.24 799.893 158.003C802.445 156.765 805.113 156.147 807.896 156.147C810.062 156.147 811.956 156.727 813.58 157.887C815.204 159.047 816.016 160.902 816.016 163.454C816.016 164.073 815.823 164.846 815.436 165.774C815.049 166.625 814.431 167.398 813.58 168.094C812.73 168.713 811.608 169.022 810.216 169.022C808.515 168.945 807.162 168.287 806.157 167.05C805.151 165.736 804.765 164.228 804.997 162.526C803.063 162.449 801.053 162.952 798.965 164.034C796.954 165.117 795.06 166.625 793.281 168.558C791.503 170.414 789.917 172.618 788.525 175.17L788.641 203.705C788.641 205.251 788.603 206.643 788.525 207.88C788.525 209.04 788.409 210.278 788.177 211.592C789.415 211.515 790.613 211.476 791.773 211.476C793.01 211.399 794.248 211.322 795.485 211.244V216H771.706V212.52ZM843.346 217.856C839.48 217.856 836.039 217.315 833.023 216.232C830.007 215.227 827.533 214.067 825.599 212.752L826.063 216.812H821.191L820.495 196.861H824.091C824.246 200.031 825.135 202.893 826.759 205.444C828.383 207.919 830.471 209.852 833.023 211.244C835.575 212.636 838.32 213.332 841.259 213.332C843.269 213.332 845.241 213.023 847.174 212.404C849.108 211.708 850.731 210.703 852.046 209.388C853.361 207.996 854.018 206.256 854.018 204.169C854.018 202.003 853.361 200.225 852.046 198.833C850.809 197.363 849.146 196.088 847.058 195.005C844.97 193.922 842.728 192.917 840.331 191.989C838.011 191.061 835.691 190.094 833.371 189.089C831.051 188.084 828.886 186.885 826.875 185.493C824.942 184.101 823.395 182.4 822.235 180.39C821.075 178.379 820.495 175.904 820.495 172.966C820.495 171.342 820.805 169.563 821.423 167.63C822.042 165.697 823.086 163.88 824.555 162.178C826.025 160.4 828.035 158.969 830.587 157.887C833.139 156.727 836.387 156.147 840.331 156.147C842.419 156.147 844.738 156.495 847.29 157.191C849.842 157.887 852.317 159.201 854.714 161.134L854.482 156.727H859.354V177.026H855.642C855.487 174.319 854.869 171.729 853.786 169.254C852.703 166.702 851.118 164.614 849.03 162.99C846.942 161.289 844.236 160.438 840.911 160.438C837.353 160.438 834.57 161.328 832.559 163.106C830.548 164.885 829.543 166.934 829.543 169.254C829.543 171.651 830.278 173.662 831.747 175.286C833.294 176.832 835.265 178.186 837.663 179.346C840.06 180.506 842.612 181.627 845.318 182.709C848.257 183.947 851.118 185.3 853.902 186.769C856.686 188.239 858.967 190.094 860.746 192.337C862.524 194.502 863.414 197.325 863.414 200.805C863.414 204.671 862.408 207.88 860.398 210.432C858.464 212.984 855.951 214.84 852.858 216C849.842 217.237 846.672 217.856 843.346 217.856Z" fill="#E6E3E7"/>
</svg>
