<svg width="158" height="158" viewBox="0 0 158 158" fill="none" xmlns="http://www.w3.org/2000/svg">
<path d="M118.222 79.0014L108.625 79.0323C103.188 79.0323 98.75 83.4699 98.75 88.9073V138.251C98.75 143.689 103.188 148.142 108.625 148.142L118.497 148.147C129.424 148.126 138.25 139.27 138.25 128.346V98.7977C138.25 87.8889 129.424 79.0014 118.222 79.0014ZM128.375 128.346C128.375 133.783 123.937 138.261 118.5 138.261H108.625V88.8764L118.5 88.8893C123.937 88.8893 128.375 93.3639 128.375 98.8044V128.346ZM49.375 79.0323L39.2223 79.0014C28.582 79.0014 19.75 87.8889 19.75 98.8132V128.361C19.75 139.279 28.582 148.139 39.4969 148.139L49.375 148.126C54.8124 148.126 59.25 143.677 59.25 138.236V88.9073C59.25 83.4452 54.8063 79.0323 49.375 79.0323ZM49.375 138.282H39.5C34.0626 138.282 29.625 133.808 29.625 128.367V98.8193C29.625 93.3819 34.0626 88.9042 39.5 88.9042L49.375 88.8913V138.282ZM74.9883 9.9937C32.5566 12.1014 0 48.7284 0 91.1909V123.439C0 126.155 2.22218 128.376 4.9375 128.376C7.65343 128.376 9.875 126.164 9.875 123.448V90.9132C9.875 53.7276 38.3891 21.6956 75.5129 19.8564C115.198 17.8937 148.125 49.6233 148.125 88.9073V123.47C148.125 126.186 150.347 128.398 153.062 128.398C155.778 128.398 158 126.176 158 123.461V88.5987C158 43.976 120.352 7.74097 74.9883 9.9937Z" fill="#1C1C1C"/>
</svg>
