<svg width="186" height="67" viewBox="0 0 186 67" fill="none" xmlns="http://www.w3.org/2000/svg">
<path d="M33.2066 6.78075e-06C23.7734 -0.00601532 14.7827 3.99947 8.49019 11.0272C14.2902 12.1754 16.2633 17.0357 16.2633 24.5603H9.16954C9.16954 20.1269 8.24646 17.8214 5.61633 17.8214C4.49701 17.8024 3.46791 18.4333 2.97714 19.4394C2.89845 19.6112 2.82328 19.7844 2.74791 19.9573C2.52906 20.5863 2.4217 21.2487 2.43069 21.9146C2.43069 31.1139 17.5387 30.6563 17.5387 44.7968C17.5387 50.3186 13.3061 55.4669 8.53907 55.4669C15.0645 62.6766 23.9743 66.3279 32.9132 66.401C41.8522 66.4741 50.8205 62.9691 57.463 55.867C51.878 54.4594 47.0156 46.427 47.0156 33.6609C47.0156 20.3607 51.9356 11.9682 57.8132 11.0826C51.94 3.85943 42.1189 0.005697 33.2066 6.78075e-06ZM20.4361 11.9702H28.0361V29.541H36.2568V11.9702H43.8535V55.582H36.2568V36.6869H28.0549V55.582H20.4361V11.9702ZM60.6041 18.2701C56.7038 18.2701 54.5671 25.6175 54.5671 32.9559C54.5671 40.6933 56.6007 48.1725 60.6041 48.1725C63.9347 48.1725 66.4109 41.0704 66.4109 33.201C66.4109 29.6177 65.2404 18.2701 60.6041 18.2701ZM0.00116572 32.5948C-0.0675524 42.2209 2.91084 48.6371 6.5662 48.6371C8.68759 48.6371 10.1936 46.7694 10.1936 44.0584C10.1981 38.4346 5.26919 37.3519 0.00116572 32.5948Z" fill="#FF1F2C"/>
<path fill-rule="evenodd" clip-rule="evenodd" d="M76.9813 54.999H83.7733L87.5863 28.1289H87.7055L91.3994 54.999H98.4297L103.971 12.5789H98.4297L95.3912 37.4828H95.272L91.876 12.5789H84.9053L81.2114 37.4828H81.0922L78.3516 12.5789H71.3213L76.9813 54.999Z" fill="#FF1F2C"/>
<path fill-rule="evenodd" clip-rule="evenodd" d="M109.688 54.999H117.434V19.1325H124.527V12.5789H103.016V19.1325H109.688V54.999Z" fill="#FF1F2C"/>
<path fill-rule="evenodd" clip-rule="evenodd" d="M124.529 54.999H132.275V12.5789H124.529V54.999Z" fill="#FF1F2C"/>
<path fill-rule="evenodd" clip-rule="evenodd" d="M136.082 54.999H141.802V23.8988H141.921L147.104 54.999H151.394L156.637 23.8988H156.756V54.999H163.667V12.5789H153.598L149.964 34.3251H149.845L146.389 12.5789H136.082V54.999Z" fill="#FF1F2C"/>
<path fill-rule="evenodd" clip-rule="evenodd" d="M167.482 54.999H185.416V48.4453H175.228V36.887H182.437V29.9759H175.228V19.1325H184.999V12.5789H167.482V54.999Z" fill="#FF1F2C"/>
</svg>
