<svg width="172" height="107" viewBox="0 0 172 107" fill="none" xmlns="http://www.w3.org/2000/svg">
<path d="M76.2419 54.755C75.821 54.5804 75.1311 53.8064 76.2788 51.6508L78.9449 46.0787C79.0259 45.9103 78.8313 45.6995 78.7098 45.8425L76.3786 48.1863C75.2756 49.3376 73.4045 52.5736 73.0422 53.1724L70.2101 57.8541C70.4204 57.8474 70.5965 58.0127 70.6032 58.2231C70.6053 58.2924 70.5887 58.3608 70.5548 58.4214L67.9662 62.7692C67.3342 63.8474 68.4697 64.6011 68.6236 64.3529C72.6922 57.7997 75.0586 58.3228 75.0586 58.3228L76.4168 55.1777C76.4883 55.0201 76.4185 54.8344 76.2609 54.7629C76.255 54.76 76.2485 54.7576 76.2419 54.755ZM85.4918 0C62.23 0 43.3727 18.848 43.3727 42.0984C43.3604 51.099 46.2479 59.8643 51.6073 67.0953C53.3742 66.3327 54.356 65.1927 55.0574 64.3197L62.8997 54.2948C63.0648 54.0834 63.2805 53.9173 63.5269 53.8113L64.7075 53.3035L77.6023 36.9552L79.472 35.4921L83.3142 30.1468C83.4135 30.0085 83.5345 29.8868 83.6726 29.7867L85.3489 28.5687C85.7631 28.2678 86.3224 28.263 86.7414 28.557L88.7756 29.9842C89.8548 30.7412 90.7295 31.7535 91.3222 32.9308L99.4703 47.236C99.6033 47.509 99.8294 47.7255 100.108 47.8466C101.706 48.6418 102.682 48.7823 104.773 51.053C105.749 52.1117 110.025 56.8919 116.018 64.3211C116.889 65.5129 118.055 66.4576 119.402 67.0628C124.745 59.8373 127.622 51.085 127.61 42.0984C127.61 18.8479 108.753 0 85.4918 0ZM54.7315 44.4188L52.0006 43.5323L50.3136 45.853V42.9849L47.5825 42.0983L50.3136 41.2116V38.3427L52.0006 40.6639L54.7315 39.7774L53.0442 42.0984L54.7315 44.4188ZM54.0841 53.8058L53.197 56.5344L52.31 53.8058H49.4398L51.7617 52.1194L50.8748 49.391L53.1969 51.0775L55.5191 49.391L54.6321 52.1194L56.9543 53.8058H54.0841ZM54.6322 32.0757L55.5193 34.8041L53.197 33.1177L50.875 34.8041L51.7618 32.0757L49.4399 30.3893H52.3102L53.1972 27.6609L54.0844 30.3893H56.9547L54.6322 32.0757ZM59.2413 25.9038L57.5552 23.5826L54.8243 24.4691L56.5114 22.1482L54.8243 19.8272L57.5552 20.7137L59.2423 18.3926V21.2617L61.9733 22.1467L59.2423 23.0335V25.9024L59.2413 25.9038ZM66.4196 15.8601L65.5326 18.5886L64.6455 15.8602H61.7751L64.0973 14.1738L63.2105 11.4452L65.5326 13.1313L67.8545 11.4449L66.9676 14.1757L69.2898 15.8621H66.4194L66.4196 15.8601ZM75.465 11.2532L73.7779 13.5744V10.7062L71.0468 9.81971L73.7779 8.93284V6.06396L75.465 8.38518L78.1948 7.49866L76.5077 9.81971L78.195 12.1406L75.465 11.2532ZM86.9271 8.62341L87.8141 11.3518L85.4918 9.66534L83.1696 11.3518L84.0556 8.62461L81.7337 6.93816H84.604L85.4913 4.20979L86.3784 6.93816H89.2486L86.9271 8.62341ZM97.2047 10.7062V13.5751L95.5183 11.2539L92.7875 12.1406L94.4747 9.81971L92.7877 7.49866L95.5186 8.38518L97.2051 6.06396V8.93284L99.936 9.81971L97.2047 10.7062ZM116.251 39.7774L118.982 40.6639L120.668 38.3427V41.2116L123.399 42.0983L120.668 42.9849V45.8537L118.982 43.5328L116.251 44.4193L117.94 42.0983L116.251 39.7774ZM105.451 18.5893L104.563 15.8607H101.693L104.015 14.1743L103.13 11.4456L105.451 13.132L107.772 11.4459L106.887 14.1743L109.208 15.8607H106.338L105.451 18.5893ZM111.742 25.9045V23.0358L109.011 22.1489L111.742 21.2639V18.3937L113.429 20.7147L116.16 19.8282L114.473 22.1492L116.16 24.4701L113.429 23.5836L111.742 25.9045ZM116.898 30.3901L117.786 27.6618L118.674 30.3901H121.544L119.222 32.0766L120.11 34.805L117.786 33.1185L115.465 34.805L116.352 32.0766L114.029 30.3901H116.898ZM118.673 53.8058L117.786 56.5344L116.898 53.8058H114.028L116.352 52.1194L115.464 49.391L117.785 51.0775L120.109 49.391L119.222 52.1194L121.543 53.8058H118.673ZM100.748 66.428C100.95 66.134 101.279 65.3276 100.661 63.8332L98.7978 58.8233C98.5448 58.1837 99.0988 57.7957 99.4705 58.2162C99.4705 58.2162 102.993 62.2761 103.903 63.9713L105.64 66.8538C107.135 66.9504 111.259 67.0628 115.229 67.0628C114.829 66.6659 114.46 66.2394 114.124 65.7871C107.35 57.392 103.053 52.722 103.01 52.6758C101.637 51.1839 101.003 50.8973 99.9555 50.4205C99.8039 50.3517 99.6394 50.2774 99.4702 50.1968V51.4713C99.4806 51.5574 99.419 51.6356 99.3327 51.6458C99.2631 51.6541 99.1962 51.615 99.1693 51.5502L89.2096 34.062L89.1819 34.0068C88.7665 33.183 88.1543 32.4745 87.3996 31.9441L86.428 31.2614L81.6765 42.2182C82.2442 42.2181 82.7048 42.6781 82.7051 43.2458C82.7053 43.3863 82.6765 43.5254 82.6206 43.6545L78.2306 53.8053H82.2603C83.8177 53.8053 85.3604 54.1084 86.8018 54.6987L87.8639 55.1339C87.8639 55.1339 84.6592 61.7245 84.6592 65.1948C84.6638 65.826 84.752 66.4535 84.9209 67.0616H92.308L91.9659 64.9814C94.8637 65.6283 97.7954 66.1116 100.747 66.4291V66.428H100.748ZM43.7484 77.1071C43.7484 70.3274 36.5574 67.0628 28.0143 67.0628C18.8755 67.0628 10.4905 71.1115 7.41286 77.3894C6.56348 79.062 6.1221 80.9123 6.1245 82.7883C6.08565 84.4106 6.53456 86.007 7.41286 87.3712C8.73153 89.3183 11.0866 90.5422 14.5413 90.5422C18.7816 90.5422 22.142 88.2187 22.142 84.1698C22.142 84.1698 22.2043 83.0406 20.8856 83.0406C19.8179 83.0406 19.5348 83.7935 19.5665 84.1698C19.7243 87.3402 17.8393 89.8831 14.4787 89.8831C10.7111 89.8831 9.13953 86.6813 9.13953 83.2602C9.13953 76.2601 14.4157 71.6139 19.9117 69.6053C22.48 68.6354 25.2075 68.1557 27.9528 68.1918C34.171 68.1918 39.2588 70.5779 39.2588 76.9819C39.2588 82.3174 34.7679 86.8691 29.3969 87.2774L29.6167 86.5557C30.7163 82.6316 32.0666 78.3316 34.2644 75.161C34.3909 74.9715 34.6102 74.6585 34.8616 74.345L34.5479 73.9679C34.0779 74.2531 33.6266 74.5675 33.1963 74.9094C22.8964 82.9456 22.5835 105.546 8.85817 105.546C8.38547 105.546 7.91363 105.514 7.44521 105.452C4.5878 104.981 3.07934 103.066 3.07934 100.399C3.07934 99.8652 3.26811 99.1428 3.26811 98.7353C3.28984 97.9772 2.69289 97.3451 1.93473 97.323C1.92874 97.3229 1.92309 97.3229 1.91744 97.3229H1.76084C0.536311 97.3229 0.0336622 98.2946 0.00217179 99.6768C-0.0916149 103.663 2.85959 105.985 7.41423 106.426C7.9162 106.457 8.41885 106.488 8.95281 106.488C19.6614 106.488 26.2251 98.3895 29.0206 88.5643C30.4365 88.3983 31.8344 88.1044 33.197 87.6861C38.1602 86.3033 43.7484 82.9776 43.7484 77.1071ZM145.755 79.461H141.985L141.138 81.4389L139.661 84.7661H137.904L137.368 85.8963H139.191L136.991 90.7619C135.423 94.1833 132.973 97.5421 131.559 97.5421C131.246 97.5421 131.056 97.4158 131.056 97.1031C131.056 96.7905 131.15 96.5058 131.496 95.6274C131.936 94.5907 132.659 93.0845 133.193 91.9861C133.977 90.3854 135.234 87.9055 135.234 86.6813C135.234 85.457 134.45 84.4837 132.91 84.4837C131.183 84.4837 129.612 85.5206 128.166 87.0259L129.109 84.7661H125.561L122.671 91.358C121.51 93.6809 119.153 97.5419 117.677 97.5419C117.363 97.5419 117.237 97.3532 117.237 97.0396C117.267 96.7578 117.341 96.4822 117.457 96.2231C117.583 95.9407 119.31 91.8916 119.31 91.8916L122.451 84.7033H118.62L115.573 91.7027C114.632 93.869 112.245 97.5416 110.705 97.5416C110.437 97.5678 110.198 97.3718 110.172 97.103C110.172 97.103 110.172 97.103 110.172 97.1024V96.9761C110.172 96.6 110.455 95.9089 110.675 95.4064L112.276 91.8915L115.573 84.7031H111.775L111.019 86.3353C110.455 87.4337 109.512 88.7207 108.005 88.7207C107.282 88.7207 106.938 88.439 106.781 88.1559C106.561 85.7389 105.021 84.4517 102.76 84.4517C99.6196 84.4517 97.3896 86.3036 95.9126 88.5641C94.9451 90.122 94.1851 91.7996 93.6525 93.5543C92.3017 95.7836 90.8892 97.5105 89.7583 97.5105C89.4754 97.5105 89.2866 97.3527 89.2866 96.9765C89.2866 96.5998 89.6638 95.7526 89.7894 95.4376L92.2705 90.1645C92.9614 88.5329 93.4336 87.4655 93.4336 86.3979C93.4336 85.2677 92.6497 84.451 91.36 84.451C89.5698 84.451 87.6222 85.4876 86.0837 87.1819C86.1359 86.9131 86.1567 86.6389 86.1463 86.3654C86.1463 85.1096 85.5187 84.4501 84.2303 84.4501C82.5978 84.4501 80.9021 85.4243 79.3634 87.1813L80.3685 84.7317H76.9133L73.9932 91.3255C72.6116 94.4335 70.3817 97.5105 69.125 97.5105C68.8428 97.5105 68.6542 97.3523 68.6542 96.9761C68.6542 96.3801 69.3138 94.9046 69.5647 94.308L73.4279 85.5506C73.7105 84.8917 71.8572 84.483 69.5019 84.483C67.0838 84.483 64.6026 85.6764 62.7816 87.2139C61.4941 88.2807 60.5518 88.8148 60.0798 88.8148C59.9259 88.8477 59.7743 88.7496 59.7411 88.5959C59.7366 88.575 59.7346 88.5538 59.7349 88.5326C59.7349 87.9988 61.0224 86.4914 61.0224 85.3303C61.0224 84.7969 60.7402 84.4512 60.0169 84.4512C58.636 84.4512 57.0021 85.7698 55.8089 87.1504L56.814 84.733H53.4228L50.5026 91.3255C49.1204 94.4335 46.8278 97.667 45.5716 97.667C45.2887 97.667 45.1011 97.5105 45.1011 97.1331C45.1011 96.5368 45.7292 95.0936 46.0744 94.3393L49.9374 85.5506C50.22 84.8917 48.3669 84.483 46.0111 84.483C42.525 84.483 39.133 86.8373 37.3431 89.2545C35.3649 91.859 34.0149 94.6217 33.9831 96.8822C33.9523 98.7026 34.8932 99.8325 36.778 99.8325C38.8824 99.8325 40.5788 98.1692 41.5517 96.9132C41.4941 97.1617 41.4518 97.4132 41.4253 97.6669C41.4253 98.9217 41.9279 99.8324 43.4665 99.8324C44.8166 99.8324 46.607 98.7023 48.0518 96.913L46.8883 99.5815H50.5623L54.1743 91.3885C55.3704 88.7209 56.7209 87.3402 57.0964 87.3402C57.1828 87.3236 57.2663 87.3801 57.2831 87.4666C57.2848 87.4765 57.2858 87.4867 57.2858 87.497C57.2858 87.7797 56.7209 88.534 56.7209 89.2233C56.7209 89.9129 57.0965 90.4472 58.103 90.4472C58.8869 90.4472 59.7667 90.0703 60.5521 89.5675C58.6993 92.0797 57.4419 94.7162 57.4419 96.8827C57.4109 98.7033 58.3521 99.833 60.2372 99.833C62.2153 99.833 64.0683 97.9496 65.0732 96.6939C65.0354 96.9856 65.0145 97.2789 65.0106 97.5728C65.0106 98.7976 65.7018 99.833 67.1148 99.833C68.6845 99.833 69.9412 98.8594 71.5115 96.9455L70.3484 99.5821H74.1163L77.5705 91.7657C79.0781 88.3755 81.1189 86.5542 82.1241 86.5542C82.3751 86.5283 82.6002 86.7108 82.6264 86.9622C82.6264 86.9627 82.6264 86.9632 82.6265 86.9637V87.0572C82.5851 87.4385 82.4789 87.81 82.3127 88.1556L77.3552 99.6133H81.218L84.7357 91.6397C86.2423 88.2187 87.9075 86.5542 89.1636 86.5542C89.5402 86.5542 89.6979 86.7438 89.6979 87.1508C89.6643 87.5879 89.5469 88.0145 89.3523 88.4078L85.9601 95.6269C85.6478 96.3217 85.4566 97.0645 85.3946 97.8237C85.3946 98.9226 85.9911 99.8972 87.6878 99.8972C89.8877 99.8972 91.5507 98.2335 93.4343 95.7538V96.2871C93.5919 98.2647 94.6908 99.9912 97.6112 99.9912C101.066 99.9912 103.862 97.6054 105.556 93.8081C106.197 92.473 106.612 91.0402 106.783 89.5689C107.161 89.7607 107.584 89.8478 108.006 89.8218C108.577 89.8282 109.14 89.6875 109.64 89.4131L109.043 90.6996C108.35 92.1439 107.597 93.745 107.003 95.0956C106.626 95.8942 106.402 96.7561 106.343 97.6371C106.343 98.9864 107.096 99.9604 108.634 99.9604C110.171 99.9604 112.278 98.5163 113.785 96.4761H113.818C113.717 96.8979 113.663 97.3292 113.658 97.7627C113.658 98.8931 114.005 99.9605 115.575 99.9605C117.398 99.9605 118.809 98.6419 120.192 96.9779L119.029 99.615H122.83L125.877 92.7092C127.604 88.8169 129.331 86.4631 130.932 86.4631C131.207 86.4534 131.442 86.6596 131.468 86.9338V87.0265C131.468 87.6863 130.525 89.4756 129.677 91.2646C128.891 92.8969 128.294 94.1519 127.887 95.1261C127.509 95.9465 127.286 96.8293 127.227 97.7307C127.227 98.9229 127.887 99.8336 129.364 99.8336C131.561 99.8336 133.792 97.6991 134.983 96.0978C134.714 96.8654 134.566 97.67 134.545 98.4829C134.545 100.681 135.862 101.78 137.716 101.78C138.947 101.77 140.145 101.375 141.14 100.65C142.584 99.6451 143.747 98.1387 144.72 96.7576L144.061 96.1292C143.15 97.4165 142.144 98.641 141.107 99.3944C140.561 99.8563 139.875 100.122 139.16 100.148C138.376 100.148 137.873 99.7393 137.873 98.7357C137.873 97.7323 138.343 96.3809 139.066 94.5599C139.097 94.5293 140.133 92.2059 141.107 89.9779C141.924 88.0931 142.74 86.2733 142.897 85.8967H145.378L145.881 84.7664H143.431L145.755 79.461ZM38.6305 97.5733C38.0969 97.5733 37.72 97.385 37.72 96.6944C37.7512 94.8422 39.2896 91.5464 41.2065 88.9093C42.5565 87.0887 44.315 85.7395 46.1995 85.7395L43.8124 91.0748C42.0222 95.0934 40.0751 97.5733 38.6305 97.5733ZM62.1218 97.5733C61.5884 97.5733 61.2115 97.385 61.1805 96.6944C61.2117 94.8422 62.7503 91.5464 64.6666 88.9093C66.0162 87.0887 67.7754 85.7395 69.6597 85.7395L67.2722 91.0749C65.4513 95.1882 63.5985 97.5734 62.1213 97.5734L62.1218 97.5733ZM103.827 87.1838C103.734 89.2235 101.944 94.1511 99.8397 97.103C98.9927 98.2955 98.2693 98.6403 97.6424 98.6403C96.7622 98.6403 96.5094 97.918 96.6357 96.8512C96.8229 94.9994 98.3629 90.6676 100.5 87.6854C101.473 86.3356 102.133 85.7705 102.887 85.7705C103.64 85.7707 103.86 86.3988 103.827 87.1838ZM162.442 84.7659L165.901 76.7822H161.808L158.348 84.7659H149.647L148.196 88.114H156.899L153.44 96.0977H157.534L160.993 88.114H169.694L171.143 84.7659H162.442Z" fill="#0064FF"/>
</svg>
