<svg width="156" height="83" viewBox="0 0 156 83" fill="none" xmlns="http://www.w3.org/2000/svg">
<path d="M147.697 80.3289C147.878 80.3397 148.053 80.3962 148.206 80.4929L148.267 80.5251L148.502 80.0524L148.453 80.0199C148.34 79.946 148.219 79.8866 148.092 79.8429C147.94 79.7968 147.781 79.7756 147.623 79.7802V79.7809C147.41 79.7799 147.203 79.8564 147.04 79.9962C146.894 80.1387 146.815 80.3366 146.825 80.5403C146.818 80.6783 146.857 80.8144 146.934 80.9291C147 81.0257 147.089 81.1056 147.191 81.1622C147.304 81.2228 147.42 81.2762 147.539 81.3219C147.679 81.3781 147.846 81.4667 147.846 81.5833C147.851 81.644 147.821 81.7025 147.768 81.7323C147.613 81.8061 147.433 81.8061 147.277 81.7323C147.184 81.6977 147.094 81.6506 147.012 81.592L146.954 81.5487L146.68 82.0303L146.727 82.0647C146.853 82.1542 146.992 82.2227 147.14 82.2678C147.284 82.3106 147.434 82.3323 147.584 82.3327C147.746 82.3368 147.907 82.3031 148.053 82.2334C148.179 82.1725 148.286 82.0774 148.362 81.959C148.431 81.8459 148.467 81.716 148.467 81.5833C148.472 81.4489 148.441 81.3159 148.379 81.1968C148.327 81.1005 148.253 81.0176 148.163 80.9549C148.067 80.8955 147.966 80.8462 147.861 80.808C147.748 80.7683 147.641 80.7155 147.541 80.6504C147.486 80.6224 147.45 80.5675 147.446 80.5059C147.44 80.4547 147.462 80.4043 147.504 80.3741C147.563 80.3411 147.629 80.3253 147.697 80.3289Z" fill="#0088D7"/>
<path d="M151.441 79.6934L151.341 79.694L150.136 81.3645L148.979 79.7214L148.955 79.6934L148.855 79.694V82.3104L149.441 82.311V81.3797L150.074 82.2521L150.1 82.2779L150.167 82.2786L150.847 81.3129V82.3104L151.447 82.311V79.7602L151.441 79.6934Z" fill="#0088D7"/>
<path d="M147.188 3.3621C146.694 3.3621 146.196 3.4304 145.706 3.57132V3.57188L68.1655 25.8037L17.8054 11.3686V11.3691C17.3877 11.2489 16.9625 11.1908 16.5402 11.1908C15.3107 11.1908 14.1115 11.6848 13.2328 12.5948V12.5951C12.0523 13.8173 11.6427 15.5912 12.1676 17.2076L18.9197 37.9477C19.8792 40.8985 19.5426 44.1175 17.9936 46.8059V46.8064L3.99921 71.0851C3.0619 72.7077 3.20337 74.7367 4.35667 76.2138C5.24208 77.3477 6.58773 77.9816 7.98013 77.9816C8.4015 77.9816 8.82769 77.9234 9.24611 77.8035V77.8039L71.357 59.9955L71.8051 60.1234L71.8049 60.1239L136.093 78.5572V78.5576C136.581 78.6974 137.08 78.7661 137.574 78.7661C139.007 78.7661 140.405 78.1907 141.429 77.1301V77.1305C142.806 75.7041 143.284 73.634 142.67 71.7486L134.949 47.9252C133.997 44.9783 134.335 41.7663 135.88 39.0819L151.826 11.4085V11.4089C152.922 9.51588 152.759 7.14725 151.413 5.42346C150.381 4.10123 148.812 3.3621 147.188 3.3621Z" fill="white"/>
<path d="M60.4888 35.2935C64.2028 35.2935 66.6299 38.8283 65.887 43.175C65.1443 47.5215 61.5318 51.0542 57.8199 51.0542C54.1038 51.0542 51.681 47.5172 52.4216 43.175C53.1624 38.8326 56.7747 35.2935 60.4888 35.2935ZM109.811 30.4935L103.549 30.4941L99.3496 55.8542L105.611 55.8549L109.811 30.4935ZM46.7557 30.4956L33.0638 30.4962C33.0635 30.4962 33.063 30.4962 33.0627 30.4962C29.673 30.4962 26.7198 33.2447 26.4693 36.6365C26.2738 38.8107 27.3503 40.9023 29.2332 42.0068V42.0073L37.3629 47.1459C37.8722 47.4561 38.1612 48.0288 38.1079 48.6229C38.0311 49.5058 37.345 50.2137 36.4646 50.3178L36.2789 50.3183L23.1699 50.3184L19.9785 55.8563L36.1515 55.857C40.2886 55.8563 43.8904 52.5008 44.1948 48.3638C44.4333 45.7046 43.1107 43.1478 40.8026 41.8059V41.8065L32.8132 36.8762C32.6808 36.7599 32.6111 36.5877 32.6254 36.412C32.6541 36.0741 32.9342 35.8127 33.2733 35.8074L43.6854 35.808L46.7557 30.4956ZM82.1742 30.4911C82.1733 30.4911 82.1725 30.4911 82.1725 30.4911L76.8108 30.4919L72.6109 55.8542L78.7304 55.8549L81.3823 39.8386L88.1237 53.8179C89.164 56.0141 90.9304 56.4091 92.4978 56.4091C95.0892 56.4093 96.2701 55.0035 96.7386 51.9913L100.297 30.4956L94.178 30.4961L91.4834 46.8111L84.2759 31.8149C83.8885 31.0061 83.0707 30.4911 82.1742 30.4911ZM61.3742 29.919C54.1644 29.919 47.3021 35.8635 46.0778 43.175C44.8535 50.4863 49.7184 56.4286 56.9304 56.4286C64.1423 56.4286 71.0024 50.4818 72.2266 43.175C73.4511 35.868 68.5841 29.9191 61.3742 29.919ZM125.719 29.9277C118.267 29.9277 111.552 34.9479 110.208 43.067C108.915 50.8727 113.03 56.4287 120.876 56.4287C124.131 56.4287 127.217 55.3964 129.562 53.3019L128.044 48.6206C126.543 50.3394 124.233 51.0433 122.41 51.0433C117.975 51.0433 115.576 47.7612 116.378 42.9288C117.146 38.3057 120.938 35.2828 124.92 35.2828C126.871 35.2828 128.423 35.7902 129.48 36.9217L132.354 31.9552C130.879 30.6015 128.372 29.9277 125.719 29.9277Z" fill="#EA0045"/>
<path d="M137.626 82.1309C136.796 82.1284 135.969 82.0098 135.172 81.7788L71.3517 63.4898L10.164 81.0274C7.04985 81.9586 3.68425 80.8649 1.71257 78.2808C-0.318766 75.7423 -0.565583 72.2112 1.09289 69.4148L15.0872 45.1356C16.1636 43.2699 16.3989 41.0353 15.7349 38.986L8.98074 18.257C8.06898 15.4622 8.77472 12.3926 10.8151 10.2766C12.8557 8.1607 15.8975 7.34409 18.7235 8.15362L68.1711 22.3294L144.778 0.360611C148.191 -0.661911 151.881 0.536964 154.042 3.37076C156.268 6.1526 156.539 10.0226 154.722 13.0875L138.776 40.7588C137.702 42.6219 137.467 44.8518 138.128 46.8976L145.847 70.7169C146.701 73.3598 146.247 76.2515 144.623 78.5049C142.999 80.7584 140.399 82.1045 137.623 82.1309L137.626 82.1313V82.1309ZM71.3517 59.8902L71.8289 60.0262L136.117 78.46C137.985 78.9971 139.998 78.459 141.348 77.0611C142.698 75.6631 143.167 73.634 142.565 71.7856L134.844 47.9623C133.882 44.9868 134.224 41.7439 135.783 39.0335L151.729 11.3601C152.804 9.50501 152.644 7.18277 151.324 5.49293C150.005 3.80298 147.791 3.08437 145.73 3.67734L68.1604 25.9181L17.7712 11.4746C16.175 11.0173 14.4568 11.4782 13.3036 12.6727C12.1503 13.867 11.7501 15.6002 12.2628 17.1795L19.015 37.9195C19.9838 40.8985 19.6439 44.1488 18.0799 46.8632L4.08556 71.1422C3.16967 72.7277 3.30781 74.7102 4.43481 76.1532C5.56159 77.5961 7.45162 78.2108 9.21175 77.7065L71.3517 59.8902Z" fill="#0088D7"/>
</svg>
