<svg width="222" height="77" viewBox="0 0 222 77" fill="none" xmlns="http://www.w3.org/2000/svg">
<mask id="mask0_590_209" style="mask-type:alpha" maskUnits="userSpaceOnUse" x="0" y="0" width="221" height="77">
<mask id="mask1_590_209" style="mask-type:luminance" maskUnits="userSpaceOnUse" x="0" y="0" width="222" height="77">
<path d="M221.231 0H0V76.2866H221.231V0Z" fill="white"/>
</mask>
<g mask="url(#mask1_590_209)">
<path d="M60.7097 26.4158L52.8673 0H28.2295V36.9043H40.3592V0.201392L51.0203 36.9043H70.3995L81.0604 0.201392V36.9043H111.114V26.2346H93.1901V23.1238H111.114V13.7877H93.1901V10.6698H111.114V0H68.5523L60.7097 26.4158Z" fill="white"/>
<path d="M26.3849 26.1157H12.0375V0H0V36.9043H26.3849V26.1157Z" fill="white"/>
<path d="M51.0269 38.7615L40.366 75.4643V38.7615H28.4419V58.2329L11.6962 38.7615H0V75.6657H12.0375V56.5619L28.6732 75.6657H52.878L54.6061 69.5947H66.8275L68.5555 75.6657H81.1259L70.4064 38.7615H51.0269ZM57.5751 59.1631L60.7166 48.1264L63.8581 59.1631H57.5751Z" fill="white"/>
<path d="M75.1045 49.5498H87.0578V75.6657H99.1876V49.5498H111.126V38.7615H75.1045V49.5498Z" fill="white"/>
<path d="M125.105 38.7615H112.976V75.6657H125.105V38.7615Z" fill="white"/>
<path d="M161.27 43.4348C157.529 39.9245 152.661 38.1448 146.798 38.1448H146.644C140.78 38.1448 135.911 39.9245 132.171 43.4348C128.423 46.9531 126.522 51.5894 126.522 57.2149C126.522 62.8404 128.45 67.4788 132.251 70.9961C136.041 74.5058 140.883 76.2852 146.644 76.2852H146.798C152.661 76.2852 157.531 74.5139 161.27 71.0205C165.019 67.5197 166.92 62.8746 166.92 57.2147C166.92 51.5903 165.019 46.9542 161.27 43.4348ZM152.427 62.7347C150.994 64.1571 149.1 64.8785 146.798 64.8785H146.644C144.34 64.8785 142.447 64.1571 141.016 62.7347C139.584 61.3138 138.858 59.4568 138.858 57.2149C138.858 54.973 139.584 53.1174 141.016 51.6953C142.448 50.2725 144.341 49.5513 146.644 49.5513H146.798C149.099 49.5513 150.993 50.273 152.427 51.6949C153.858 53.1182 154.584 54.9753 154.584 57.2149C154.584 59.4545 153.858 61.313 152.427 62.7347Z" fill="white"/>
<path d="M196.805 58.2329L180.061 38.7615H168.364V75.6657H180.401V56.5619L197.037 75.6657H208.729V38.7615H196.805V58.2329Z" fill="white"/>
<path d="M218.473 42.2029C218.582 42.0298 218.637 41.8333 218.637 41.6135C218.637 41.4144 218.605 41.2424 218.543 41.0976C218.48 40.9527 218.381 40.8326 218.244 40.7386C218.106 40.6443 217.928 40.5745 217.711 40.529C217.493 40.4835 217.228 40.4609 216.915 40.4609H215.673V44.2592H216.419V42.7712H217.212L217.964 44.2592H218.795L217.954 42.6139C218.19 42.5129 218.364 42.3757 218.473 42.2029ZM217.672 42.0456C217.539 42.1415 217.327 42.1897 217.035 42.1897H216.419V41.0477H216.999C217.124 41.0477 217.24 41.0564 217.348 41.0738C217.456 41.0915 217.548 41.123 217.624 41.1681C217.701 41.2136 217.762 41.2729 217.804 41.3465C217.849 41.4199 217.87 41.5106 217.87 41.6188C217.87 41.8074 217.804 41.9496 217.672 42.0456Z" fill="white"/>
<path d="M217.005 38.5859C214.901 38.5859 213.189 40.3048 213.189 42.4177C213.189 44.5305 214.901 46.2494 217.005 46.2494C219.109 46.2494 220.821 44.5305 220.821 42.4177C220.821 40.3048 219.109 38.5859 217.005 38.5859ZM217.005 45.7254C215.188 45.7254 213.711 44.2415 213.711 42.4177C213.711 40.5938 215.188 39.1099 217.005 39.1099C218.821 39.1099 220.299 40.5938 220.299 42.4177C220.299 44.2415 218.821 45.7254 217.005 45.7254Z" fill="white"/>
</g>
</mask>
<g mask="url(#mask0_590_209)">
<rect x="-84.6406" y="-51.636" width="390.784" height="179.45" fill="#EA0045"/>
</g>
</svg>
