<svg width="114" height="152" viewBox="0 0 114 152" fill="none" xmlns="http://www.w3.org/2000/svg">
<path d="M99.7524 57C97.1399 57 95.0024 59.1375 95.0024 61.75V76C95.0024 97.8203 76.522 115.366 54.3899 113.941C34.2321 112.545 19.0024 94.8812 19.0024 74.6641V61.75C19.0024 59.1375 16.8649 57 14.2524 57C11.6399 57 9.50244 59.1375 9.50244 61.75V74.3316C9.50244 99.085 27.7988 120.674 52.2524 123.138V142.5H33.2524C30.6399 142.5 28.5024 144.637 28.5024 147.25C28.5024 149.863 30.6399 152 33.2524 152H80.7524C83.3652 152 85.5024 149.862 85.5024 147.25C85.5024 144.637 83.3652 142.5 80.7524 142.5H61.7524V123.203C85.7399 120.798 104.502 100.581 104.502 76V61.75C104.502 59.1375 102.365 57 99.7524 57ZM57.0024 104.5C72.7368 104.5 85.5024 91.7344 85.5024 76V28.5C85.5024 13.0328 72.7368 0 57.0024 0C41.2681 0 28.5024 12.7656 28.5024 28.5V76C28.5024 91.7344 41.2681 104.5 57.0024 104.5ZM38.0024 28.5C38.0024 18.0352 46.5376 9.5 57.0024 9.5C67.4673 9.5 76.0024 18.0352 76.0024 28.5V76C76.0024 86.4648 67.4673 95 57.0024 95C46.5376 95 38.0024 86.4797 38.0024 76V28.5Z" fill="#1C1C1C"/>
</svg>
